<svg version="1.1" xmlns="http://www.w3.org/2000/svg" x="0" y="0" width="40" height="26.8" viewBox="0 0 40 26.8" enable-background="new 0 0 40 26.787" xml:space="preserve"><path fill="#EA4E24" d="M40 2.1V0H18h-0.3H0v14.4h17.7v0H40v-2.1H18v-2H40V8.2H18v-2H40V4.1H18V2.1H40zM1.9 13.7l-0.5-0.3 -0.5 0.3 0.2-0.5 -0.5-0.3h0.6l0.2-0.5 0.2 0.5h0.6l-0.5 0.3L1.9 13.7zM1.8 10.3l0.2 0.5 -0.5-0.3 -0.5 0.3 0.2-0.5L0.7 9.9h0.6l0.2-0.5 0.2 0.5h0.6L1.8 10.3zM1.8 7.3l0.2 0.5L1.5 7.6 1 7.9l0.2-0.5L0.7 7h0.6l0.2-0.5 0.2 0.5h0.6L1.8 7.3zM1.8 4.4l0.2 0.5 -0.5-0.3 -0.5 0.3 0.2-0.5L0.7 4.1h0.6l0.2-0.5 0.2 0.5h0.6L1.8 4.4zM1.8 1.5L1.9 2.1 1.5 1.7 1 2.1l0.2-0.5L0.7 1.2h0.6l0.2-0.5 0.2 0.5h0.6L1.8 1.5zM3.4 12.2l-0.5-0.3L2.5 12.2l0.2-0.5 -0.5-0.3H2.8l0.2-0.5 0.2 0.5H3.7l-0.5 0.3L3.4 12.2zM3.3 8.8l0.2 0.5 -0.5-0.3L2.5 9.3l0.2-0.5L2.2 8.5H2.8l0.2-0.5 0.2 0.5H3.7L3.3 8.8zM3.3 5.9L3.4 6.4 3 6.1 2.5 6.4l0.2-0.5 -0.5-0.3H2.8L3 5l0.2 0.5H3.7L3.3 5.9zM3.3 3l0.2 0.5 -0.5-0.3L2.5 3.5l0.2-0.5 -0.5-0.3H2.8l0.2-0.5 0.2 0.5H3.7L3.3 3zM4.9 13.7l-0.5-0.3 -0.5 0.3 0.2-0.5 -0.5-0.3h0.6l0.2-0.5 0.2 0.5h0.6l-0.5 0.3L4.9 13.7zM4.8 10.3l0.2 0.5 -0.5-0.3 -0.5 0.3 0.2-0.5L3.8 9.9h0.6l0.2-0.5 0.2 0.5h0.6L4.8 10.3zM4.8 7.3l0.2 0.5L4.5 7.6 4 7.9l0.2-0.5L3.8 7h0.6l0.2-0.5 0.2 0.5h0.6L4.8 7.3zM4.8 4.4l0.2 0.5 -0.5-0.3 -0.5 0.3 0.2-0.5L3.8 4.1h0.6l0.2-0.5 0.2 0.5h0.6L4.8 4.4zM4.8 1.5L4.9 2.1 4.5 1.7 4 2.1l0.2-0.5L3.8 1.2h0.6l0.2-0.5 0.2 0.5h0.6L4.8 1.5zM6.4 12.2l-0.5-0.3 -0.5 0.3 0.2-0.5 -0.5-0.3h0.6l0.2-0.5 0.2 0.5h0.6l-0.5 0.3L6.4 12.2zM6.3 8.8l0.2 0.5 -0.5-0.3 -0.5 0.3 0.2-0.5L5.3 8.5h0.6l0.2-0.5 0.2 0.5h0.6L6.3 8.8zM6.3 5.9L6.4 6.4 6 6.1 5.5 6.4l0.2-0.5 -0.5-0.3h0.6L6 5l0.2 0.5h0.6L6.3 5.9zM6.3 3l0.2 0.5 -0.5-0.3 -0.5 0.3 0.2-0.5 -0.5-0.3h0.6l0.2-0.5 0.2 0.5h0.6L6.3 3zM8 13.7l-0.5-0.3 -0.5 0.3 0.2-0.5 -0.5-0.3h0.6l0.2-0.5 0.2 0.5h0.6l-0.5 0.3L8 13.7zM7.8 10.3l0.2 0.5 -0.5-0.3 -0.5 0.3 0.2-0.5L6.8 9.9h0.6l0.2-0.5 0.2 0.5h0.6L7.8 10.3zM7.8 7.3L8 7.9 7.5 7.6 7 7.9l0.2-0.5L6.8 7h0.6l0.2-0.5 0.2 0.5h0.6L7.8 7.3zM7.8 4.4L8 5l-0.5-0.3 -0.5 0.3 0.2-0.5L6.8 4.1h0.6l0.2-0.5 0.2 0.5h0.6L7.8 4.4zM7.8 1.5L8 2.1 7.5 1.7 7 2.1l0.2-0.5L6.8 1.2h0.6l0.2-0.5 0.2 0.5h0.6L7.8 1.5zM9.5 12.2L9 11.9l-0.5 0.3 0.2-0.5 -0.5-0.3h0.6L9 10.8l0.2 0.5h0.6l-0.5 0.3L9.5 12.2zM9.3 8.8l0.2 0.5L9 9l-0.5 0.3 0.2-0.5L8.3 8.5h0.6L9 7.9l0.2 0.5h0.6L9.3 8.8zM9.3 5.9L9.5 6.4 9 6.1 8.5 6.4l0.2-0.5 -0.5-0.3h0.6L9 5l0.2 0.5h0.6L9.3 5.9zM9.3 3l0.2 0.5L9 3.2l-0.5 0.3 0.2-0.5 -0.5-0.3h0.6L9 2.1l0.2 0.5h0.6L9.3 3zM11 13.7l-0.5-0.3 -0.5 0.3 0.2-0.5 -0.5-0.3h0.6l0.2-0.5 0.2 0.5h0.6l-0.5 0.3L11 13.7zM10.8 10.3l0.2 0.5 -0.5-0.3 -0.5 0.3 0.2-0.5L9.8 9.9h0.6l0.2-0.5 0.2 0.5h0.6L10.8 10.3zM10.8 7.3l0.2 0.5 -0.5-0.3 -0.5 0.3 0.2-0.5L9.8 7h0.6l0.2-0.5 0.2 0.5h0.6L10.8 7.3zM10.8 4.4l0.2 0.5 -0.5-0.3 -0.5 0.3 0.2-0.5L9.8 4.1h0.6l0.2-0.5 0.2 0.5h0.6L10.8 4.4zM10.8 1.5l0.2 0.5 -0.5-0.3 -0.5 0.3 0.2-0.5L9.8 1.2h0.6l0.2-0.5 0.2 0.5h0.6L10.8 1.5zM12.5 12.2l-0.5-0.3 -0.5 0.3 0.2-0.5 -0.5-0.3h0.6l0.2-0.5 0.2 0.5h0.6l-0.5 0.3L12.5 12.2zM12.3 8.8l0.2 0.5 -0.5-0.3 -0.5 0.3 0.2-0.5 -0.5-0.3h0.6l0.2-0.5 0.2 0.5h0.6L12.3 8.8zM12.3 5.9l0.2 0.5L12 6.1l-0.5 0.3 0.2-0.5 -0.5-0.3h0.6l0.2-0.5 0.2 0.5h0.6L12.3 5.9zM12.3 3l0.2 0.5 -0.5-0.3 -0.5 0.3 0.2-0.5 -0.5-0.3h0.6l0.2-0.5 0.2 0.5h0.6L12.3 3zM14 13.7l-0.5-0.3 -0.5 0.3 0.2-0.5 -0.5-0.3h0.6l0.2-0.5 0.2 0.5h0.6l-0.5 0.3L14 13.7zM13.8 10.3l0.2 0.5 -0.5-0.3 -0.5 0.3 0.2-0.5 -0.5-0.3h0.6l0.2-0.5 0.2 0.5h0.6L13.8 10.3zM13.8 7.3l0.2 0.5 -0.5-0.3 -0.5 0.3 0.2-0.5 -0.5-0.3h0.6l0.2-0.5 0.2 0.5h0.6L13.8 7.3zM13.8 4.4l0.2 0.5 -0.5-0.3 -0.5 0.3 0.2-0.5 -0.5-0.3h0.6l0.2-0.5 0.2 0.5h0.6L13.8 4.4zM13.8 1.5l0.2 0.5 -0.5-0.3 -0.5 0.3 0.2-0.5 -0.5-0.3h0.6l0.2-0.5 0.2 0.5h0.6L13.8 1.5zM15.5 12.2l-0.5-0.3 -0.5 0.3 0.2-0.5 -0.5-0.3h0.6l0.2-0.5 0.2 0.5h0.6l-0.5 0.3L15.5 12.2zM15.3 8.8l0.2 0.5 -0.5-0.3 -0.5 0.3 0.2-0.5L14.3 8.5h0.6l0.2-0.5 0.2 0.5h0.6L15.3 8.8zM15.3 5.9l0.2 0.5L15 6.1l-0.5 0.3 0.2-0.5 -0.5-0.3h0.6l0.2-0.5 0.2 0.5h0.6L15.3 5.9zM15.3 3l0.2 0.5 -0.5-0.3 -0.5 0.3 0.2-0.5 -0.5-0.3h0.6l0.2-0.5 0.2 0.5h0.6L15.3 3zM17 13.7l-0.5-0.3 -0.5 0.3 0.2-0.5 -0.5-0.3h0.6l0.2-0.5 0.2 0.5h0.6l-0.5 0.3L17 13.7zM16.8 10.3l0.2 0.5 -0.5-0.3 -0.5 0.3 0.2-0.5 -0.5-0.3h0.6l0.2-0.5 0.2 0.5h0.6L16.8 10.3zM16.8 7.3l0.2 0.5L16.5 7.6l-0.5 0.3 0.2-0.5 -0.5-0.3h0.6l0.2-0.5 0.2 0.5h0.6L16.8 7.3zM16.8 4.4l0.2 0.5 -0.5-0.3 -0.5 0.3 0.2-0.5 -0.5-0.3h0.6l0.2-0.5 0.2 0.5h0.6L16.8 4.4zM16.8 1.5l0.2 0.5L16.5 1.7l-0.5 0.3 0.2-0.5 -0.5-0.3h0.6l0.2-0.5 0.2 0.5h0.6L16.8 1.5z"/><rect y="16.5" fill="#EA4E24" width="40" height="2.1"/><rect y="20.6" fill="#EA4E24" width="40" height="2.1"/><rect y="24.7" fill="#EA4E24" width="40" height="2.1"/></svg>