<svg version="1.1" xmlns="http://www.w3.org/2000/svg" x="0" y="0" width="40" height="26.8" viewBox="0 0 40 26.8" xml:space="preserve"><path fill="#F26522" d="M0 1.7v2.7h4.1M0 8.8v2.8l4.1-2.8M19.8 0v1.7l-4.1 2.7h4.1v4.5h-4.1l4.1 2.7V13.3h-2.5l-5.2-3.5v3.5H7.7V9.8l-5.2 3.5H0v13.5h40V0H19.8zm-7.7 0v3.5L17.3 0h-5.2zM2.5 0l5.2 3.5V0H2.5zm8.9 23.5l-1.7-1.8L8 23.5l.3-2.5-2.5-.3 2.1-1.4-1.4-2 2.4.8.8-2.3.8 2.3 2.4-.8-1.4 2.1 2.1 1.4-2.5.2.3 2.5zM28.7 3.1l1.1.4.4-1.1.4 1.1 1.1-.4-.7.9 1 .6-1.2.1.1 1.2-.8-.9-.8.9.1-1.2-1.2-.1 1-.6-.5-.9zm-2.9 10l-.8-.9-.8.9.1-1.2-1.2-.1 1-.6-.6-1 1.1.4.4-1.1.4 1.1 1.1-.4-.7 1 1 .6-1.2.1.2 1.2zM31 23.9l-.8-.9-.8.9.1-1.2-1.2-.1 1-.6-.6-1 1.1.4.4-1.1.4 1.1 1.1-.4-.6 1 1 .6-1.2.1.1 1.2zm2.6-8.5l-.7-.5-.7.5.3-.8-.7-.5h.9l.3-.8.3.8h.9l-.7.5.1.8zm3.1-4.1l-.8-.9-.8.9.1-1.2L34 10l1-.6-.6-1 1.1.4.4-1.1.4 1.1 1.1-.4-.6 1 1 .6-1.2.1.1 1.2z"/><path fill="#F26522" d="M7.7 8.8H6.6L0 13.2h1.6l6.1-4M12.1 4.4h1.1L19.8 0h-1.6l-6.1 4.1M5 4.4h1.6L0 0v1.1M13.2 8.8l6.6 4.4v-1l-5-3.4"/><path fill="#F26522" d="M0 5.3v2.6h8.5v5.3h2.7V7.9h8.6V5.3h-8.6V0H8.5v5.3"/></svg>