<svg version="1.1" xmlns="http://www.w3.org/2000/svg" x="0" y="0" width="40" height="26.8" viewBox="0 0 40 26.8" enable-background="new 0 0 40 26.787" xml:space="preserve"><rect x="40" fill="#EA4E24" width="0" height="26.8"/><polygon fill="#EA4E24" points="0 1.7 0 4.4 4.1 4.4 "/><polygon fill="#EA4E24" points="0 8.8 0 11.6 4.1 8.8 "/><path fill="#EA4E24" d="M19.8 0v1.7l-4.1 2.7h4.1v0.9 2.7 0.9h-4.1l4.1 2.7v0.6 1.1h-2.5L12.1 9.8v3.5h-0.9H8.5 7.7V9.8l-5.2 3.5H1.6 0V26.8h40V0L19.8 0zM12.1 0V3.5l5.2-3.5H12.1zM2.5 0l5.2 3.5v-3.5H2.5zM11.4 23.5l-1.7-1.8 -1.7 1.8 0.3-2.5L5.8 20.7l2.1-1.4L6.5 17.3l2.4 0.8 0.8-2.3 0.8 2.3 2.4-0.8 -1.4 2.1 2.1 1.4 -2.5 0.2L11.4 23.5zM28.7 3.1l1.1 0.4 0.4-1.1 0.4 1.1 1.1-0.4L31 4l1 0.6 -1.2 0.1 0.1 1.2 -0.8-0.9 -0.8 0.9 0.1-1.2 -1.2-0.1 1-0.6L28.7 3.1zM25.8 13.1l-0.8-0.9 -0.8 0.9 0.1-1.2 -1.2-0.1 1-0.6 -0.6-1 1.1 0.4 0.4-1.1 0.4 1.1 1.1-0.4L25.8 11.2l1 0.6 -1.2 0.1L25.8 13.1zM31 23.9l-0.8-0.9 -0.8 0.9 0.1-1.2 -1.2-0.1 1-0.6 -0.6-1 1.1 0.4 0.4-1.1 0.4 1.1 1.1-0.4 -0.6 1 1 0.6 -1.2 0.1L31 23.9zM33.6 15.4l-0.7-0.5 -0.7 0.5 0.3-0.8 -0.7-0.5h0.9l0.3-0.8 0.3 0.8h0.9l-0.7 0.5L33.6 15.4zM36.7 11.3l-0.8-0.9 -0.8 0.9 0.1-1.2L34 10l1-0.6 -0.6-1 1.1 0.4 0.4-1.1 0.4 1.1 1.1-0.4 -0.6 1 1 0.6 -1.2 0.1L36.7 11.3z"/><polygon fill="#EA4E24" points="7.7 8.8 6.6 8.8 0 13.2 1.6 13.2 7.7 9.2 "/><polygon fill="#EA4E24" points="12.1 4.4 13.2 4.4 19.8 0 18.2 0 12.1 4.1 "/><polygon fill="#EA4E24" points="5 4.4 6.6 4.4 0 0 0 1.1 "/><polygon fill="#EA4E24" points="13.2 8.8 19.8 13.2 19.8 12.2 14.8 8.8 "/><polygon fill="#EA4E24" points="0 5.3 0 7.9 8.5 7.9 8.5 13.2 11.2 13.2 11.2 7.9 19.8 7.9 19.8 5.3 11.2 5.3 11.2 0 8.5 0 8.5 5.3 "/></svg>