<svg version="1.1" xmlns="http://www.w3.org/2000/svg" x="0" y="0" width="40" height="26.8" viewBox="0 0 40 26.8" enable-background="new 0 0 40 26.787" xml:space="preserve"><polygon fill="#F26522" points="35 0 24.5 0 24.5 7 "/><polygon fill="#F26522" points="0 17.9 0 23.4 8.3 17.9 "/><polygon fill="#F26522" points="24.5 26.8 35 26.8 24.5 19.8 "/><polygon fill="#F26522" points="0 3.4 0 8.9 8.3 8.9 "/><polygon fill="#F26522" points="15.5 0 5 0 15.5 7 "/><polygon fill="#F26522" points="5 26.8 15.5 26.8 15.5 19.8 "/><polygon fill="#F26522" points="40 8.9 40 3.4 31.7 8.9 "/><polygon fill="#F26522" points="40 23.4 40 17.9 31.7 17.9 "/><polygon fill="#F26522" points="15.5 17.9 13.3 17.9 0 26.8 3.2 26.8 15.5 18.5 "/><polygon fill="#F26522" points="24.5 8.9 26.7 8.9 40 0 36.8 0 24.5 8.3 "/><polygon fill="#F26522" points="13.3 8.9 0 0 0 2.1 10.1 8.9 "/><polygon fill="#F26522" points="26.7 17.9 40 26.8 40 24.7 29.9 17.9 "/><polygon fill="#F26522" points="22.7 0 17.3 0 17.3 10.7 0 10.7 0 16.1 17.3 16.1 17.3 26.8 22.7 26.8 22.7 16.1 40 16.1 40 10.7 22.7 10.7 "/></svg>