<svg xmlns="http://www.w3.org/2000/svg" version="1.1" x="0" y="0" width="40" height="26.8" viewBox="0 0 40 26.8" enable-background="new 0 0 40 26.8" xml:space="preserve"><path fill="#F26522" d="M33.3 13.4c0 7.3-5.9 13.3-13.2 13.3 -7.3 0-13.2-5.9-13.2-13.2S12.7 0.2 20 0.2C27.3 0.2 33.3 6.1 33.3 13.4zM13.1 12.7c0.1-1.9 0.4-3.6 0.9-5.3H9.6c-0.9 1.6-1.5 3.4-1.6 5.3H13.1zM19.4 7.5h-3.9c-0.6 1.6-0.9 3.4-1 5.3h5V7.5L19.4 7.5zM19.4 1.4c-1.4 1.2-2.6 2.9-3.4 4.7h3.4V1.4zM10.5 6.2h4.1c0.7-1.6 1.6-3.2 2.7-4.4C14.4 2.4 12.1 4.1 10.5 6.2zM32 12.7c-0.1-1.9-0.7-3.7-1.6-5.3h-4.4c0.5 1.6 0.9 3.4 0.9 5.3H32zM20.6 12.7h5c-0.1-1.9-0.4-3.6-1-5.3h-3.9V12.7zM20.6 6.2h3.4c-0.8-1.9-2-3.5-3.4-4.7V6.2zM22.8 1.8c1.1 1.2 2 2.8 2.7 4.4h4.1C27.9 4.1 25.6 2.4 22.8 1.8zM8 14.1c0.1 1.9 0.7 3.7 1.6 5.3h4.4c-0.5-1.6-0.8-3.4-0.9-5.3H8L8 14.1zM19.4 14.1h-5c0.1 1.9 0.4 3.6 1 5.3h3.9V14.1zM19.4 20.6h-3.4c0.8 1.9 2 3.5 3.4 4.7V20.6L19.4 20.6zM17.2 25c-1.1-1.2-2-2.8-2.7-4.4H10.5C12.1 22.7 14.4 24.4 17.2 25zM26.9 14.1c-0.1 1.9-0.4 3.6-0.9 5.3h4.4c0.9-1.6 1.5-3.4 1.6-5.3H26.9L26.9 14.1zM20.6 19.3h3.9c0.6-1.6 0.9-3.4 1-5.3h-5V19.3zM20.6 25.4c1.4-1.2 2.6-2.9 3.4-4.7h-3.4V25.4zM29.5 20.6h-4.1c-0.7 1.6-1.6 3.2-2.7 4.4C25.6 24.4 27.9 22.7 29.5 20.6z"/></svg>