<svg version="1.1" xmlns="http://www.w3.org/2000/svg" x="0" y="0" width="320" height="180" viewBox="0 0 1920 1080" enable-background="new 0 0 1920 1080" xml:space="preserve"><path fill="#231F20" d="M611.16 556.69c17.48 0 33.32 6.6 47.5 19.8 13.56 14.27 20.34 30.28 20.34 48.03 0 25.42-12.04 45.4-36.12 59.94 -10.44 5.27-20.52 7.9-30.24 7.9h-4.01c-15.7 0-31.04-6.78-46.03-20.34v68.37c0 4.19-3.3 7-9.9 8.43 -4.73 0-7.85-3.3-9.36-9.9V628.95c0-34.25 16.19-57.35 48.57-69.31C595.9 558.39 602.33 557.41 611.16 556.69M563.12 623.06v2.54c0 18.02 8.74 32.02 26.23 42.01 6.33 3.3 13.11 4.95 20.34 4.95h2.94c18.82 0 33.18-9.72 43.08-29.17 2.32-6.15 3.48-12.09 3.48-17.8v-2.54c0-15.07-6.91-27.78-20.74-38.13 -8.21-5.62-17.48-8.43-27.83-8.43 -20.52 0-35.5 10.75-44.96 32.25C563.97 614.01 563.12 618.78 563.12 623.06"/><path fill="#231F20" d="M762.36 556.29c25.87 0 46.34 12.67 61.41 38 4.64 10.26 6.96 20.92 6.96 31.98v57.94c0 4.91-3.17 7.89-9.5 8.96h-0.53c-4.28 0-7.45-2.5-9.5-7.49v-0.53l0.54-12.44v-0.53c-14.72 14-30.55 21.01-47.5 21.01h-3.88c-23.19 0-42.55-11.64-58.07-34.92 -5.62-11.24-8.43-22.57-8.43-33.98 0-25.42 12.49-45.58 37.46-60.48C741.94 558.79 752.28 556.29 762.36 556.29M713.39 623.73v1.47c0 19.89 9.99 34.88 29.97 44.96 6.33 2.32 12 3.48 16.99 3.48h3.88c16.59 0 30.28-8.29 41.08-24.88 3.93-7.85 5.89-15.34 5.89-22.48v-2.01c0-19.18-9.46-33.85-28.37-44.02 -6.6-2.94-13.42-4.42-20.47-4.42h-0.53c-20.16 0-35.32 10.48-45.49 31.44C714.37 613.78 713.39 619.27 713.39 623.73"/><path fill="#231F20" d="M874.43 507.19h1.87c5.89 1.25 8.83 3.88 8.83 7.89v44.15h20.2l4.42-0.53c4.55 0 7.63 3.3 9.23 9.9 0 4.46-2.77 7.72-8.3 9.77l-7.36-0.54h-18.2v72.12c0 12.58 4.1 20.29 12.31 23.15l11.24 0.94h5.49c4.28 0 7.05 3.12 8.3 9.37v0.4c-1.07 6.25-4.19 9.37-9.37 9.37h-10.3c-15.61 0-27.21-8.52-34.79-25.56 -1.34-4.19-2.01-9.1-2.01-14.72v-75.06h-9.77l-7.89 0.54c-5.53-1.96-8.3-5.22-8.3-9.77 1.07-6.24 4.01-9.37 8.83-9.37v-0.53l4.95 0.54H866v-41.21C866.8 510.8 869.61 507.19 874.43 507.19"/><path fill="#231F20" d="M992.94 555.89c17.66 0 33.72 6.65 48.17 19.94 0.98 1.79 1.47 3.48 1.47 5.08v0.54c-1.16 6.33-4.33 9.5-9.5 9.5h-0.54c-2.41 0-7.76-3.16-16.05-9.5 -7.4-3.75-14.76-5.62-22.08-5.62h-2.94c-19.45 0-34.16 10.22-44.15 30.64 -2.32 6.87-3.48 13.07-3.48 18.6 0 19.8 10.21 34.83 30.64 45.09 6.15 2.32 12.67 3.48 19.53 3.48 11.51 0 22.83-4.68 33.99-14.05l4.01-0.94h1.61c4.9 0 7.9 3.17 8.97 9.5v0.4c0 6.87-10.7 14.41-32.11 22.61 -7.23 1.34-12.58 2.01-16.06 2.01h-4.01c-18.46 0-35.64-8.7-51.51-26.09 -9.72-13.73-14.58-27.92-14.58-42.55 0-22.3 9.86-41.03 29.57-56.2C966.45 560.04 979.48 555.89 992.94 555.89"/><path fill="#231F20" d="M1072.56 501.84h2.01c6.07 1.25 9.1 3.93 9.1 8.03v61.68c12.93-11.15 26.76-16.73 41.48-16.73 22.48 0 40.45 10.62 53.92 31.85 5.08 9.46 7.63 18.38 7.63 26.76v70.65c0 5-3.21 8.03-9.63 9.1h-0.4c-4.82 0-8.03-3.03-9.63-9.1v-67.7c0-18.2-9.41-31.31-28.23-39.34 -4.55-1.34-9.1-2.01-13.65-2.01 -18.73 0-31.89 9.95-39.47 29.84 -1.34 4.28-2.01 11.33-2.01 21.14v58.07c0 5-3.21 8.03-9.63 9.1h-0.4c-4.82 0-8.03-3.03-9.63-9.1V511.34C1065.34 505 1068.19 501.84 1072.56 501.84"/><path fill="#231F20" d="M1353.41 501.57h2.01c6.06 1.25 9.1 3.97 9.1 8.16v100.08l0.54 17.13c0 13.2-5.4 27.03-16.19 41.48 -15.25 16.5-32.42 24.75-51.51 24.75h-4.01c-18.64 0-35.99-8.74-52.05-26.22 -9.81-13.91-14.72-28.28-14.72-43.08 0-22.39 9.95-41.25 29.84-56.6 12.67-8.38 25.82-12.58 39.47-12.58 17.57 0 34.07 6.91 49.51 20.74v-57.13l-0.54-8.03C1346.72 504.47 1349.58 501.57 1353.41 501.57M1246.24 622.39v2.54c0 20.6 10.79 35.95 32.38 46.03 5.8 1.7 11.02 2.54 15.65 2.54h3.08c20.07 0 35.23-10.79 45.49-32.38 1.69-6.51 2.54-11.55 2.54-15.12v-3.08c0-20.51-10.97-35.86-32.91-46.03 -6.69-1.69-11.91-2.54-15.65-2.54h-2.01c-20.07 0-35.23 10.62-45.49 31.85C1247.26 612.18 1246.24 617.57 1246.24 622.39"/><path fill="#F26522" d="M1223.79 566.19h-24.76c-4.95 0-9-4.05-9-9v-44.15c0-4.95 4.05-9 9-9h24.76c4.95 0 9 4.05 9 9v44.15C1232.79 562.14 1228.74 566.19 1223.79 566.19"/><path fill="#231F20" d="M645.58 732.1c1.13 0.3 1.7 0.74 1.7 1.32v4.72c4.53-4.03 8.8-6.04 12.83-6.04 2.17 0 4.45 0.51 6.82 1.53 0.43 0.45 0.64 0.9 0.64 1.33v0.07c-0.18 1.09-0.7 1.63-1.56 1.63 -2.33-0.75-4.13-1.12-5.4-1.12h-0.75c-5.36 0-9.29 2.77-11.78 8.32 -0.54 1.49-0.82 3.17-0.82 5.02v15.07c0 0.79-0.55 1.28-1.66 1.46h-0.07c-0.81 0-1.34-0.59-1.56-1.77v-29.39C644.15 732.82 644.68 732.1 645.58 732.1"/><path fill="#231F20" d="M686.24 732.31c6.38 0 11.34 3.03 14.87 9.1 1.2 2.35 1.8 4.92 1.8 7.7v0.58c-0.2 1.18-0.72 1.77-1.56 1.77h-27.9c1.27 4.32 3.68 7.44 7.23 9.37 2.06 0.79 3.99 1.19 5.8 1.19 2.11 0 4.42-0.63 6.96-1.9h0.48c1 0.2 1.49 0.69 1.49 1.46v0.37c0 1.58-2.78 2.74-8.35 3.46h-0.81c-5.93 0-10.69-2.78-14.29-8.35 -1.42-2.6-2.14-5.34-2.14-8.21 0-6.04 2.86-10.86 8.59-14.46C681.18 733 683.79 732.31 686.24 732.31M673.2 748.19h26.2c0-2.49-1.09-5.22-3.26-8.18 -2.99-2.8-5.95-4.21-8.89-4.21h-1.39c-4.37 0-7.95 2.13-10.76 6.38C674.13 743.88 673.5 745.89 673.2 748.19"/><path fill="#231F20" d="M739.6 718.49h0.41c1.04 0.2 1.56 0.61 1.56 1.22v25.39l0.14 4.34c0 3.17-1.3 6.5-3.9 9.98 -3.69 3.98-7.83 5.97-12.42 5.97h-1.02c-4.48 0-8.65-2.12-12.53-6.35 -2.37-3.35-3.56-6.81-3.56-10.39 0-5.41 2.41-9.97 7.23-13.68 3.05-2.01 6.22-3.02 9.5-3.02 4.23 0 8.7 2.1 13.41 6.31v-16.43l-0.14-1.9C738.59 718.98 739.04 718.49 739.6 718.49M711.56 748.3v0.65c0 5.59 2.92 9.74 8.76 12.46 1.58 0.47 3.01 0.71 4.28 0.71h0.78c5.45 0 9.57-2.92 12.36-8.76 0.45-1.79 0.68-3.17 0.68-4.14v-0.78c0-5.57-2.98-9.73-8.93-12.49 -1.81-0.45-3.22-0.68-4.24-0.68h-0.51c-5.45 0-9.56 2.86-12.32 8.59C711.85 745.5 711.56 746.98 711.56 748.3"/><path fill="#231F20" d="M751.1 732.24c1.11 0.27 1.66 0.71 1.66 1.32v13.61c0 6.13 1.78 10.27 5.33 12.42 2.24 1.7 4.74 2.55 7.5 2.55 5.3 0 9.28-2.73 11.95-8.18 0.57-1.77 0.85-3.52 0.85-5.26v-14.69c0.23-1.18 0.76-1.77 1.6-1.77 1.11 0.25 1.66 0.77 1.66 1.56v30.28c0 0.66-0.54 1.1-1.63 1.32 -1.09-0.2-1.63-0.72-1.63-1.56v-3.26h-1.32c-3.53 3.22-7.23 4.82-11.1 4.82h-0.88c-5 0-9.35-2.47-13.03-7.4 -1.7-2.62-2.55-5.89-2.55-9.81v-13.85C749.67 732.94 750.2 732.24 751.1 732.24"/><path fill="#231F20" d="M805.08 732.27c4.25 0 8.1 1.58 11.54 4.75 0.14 0.23 0.2 0.48 0.2 0.75v0.07c-0.2 1.09-0.72 1.63-1.56 1.63h-0.14c-0.43 0-1.64-0.76-3.63-2.27 -2.04-1.04-4.05-1.56-6.04-1.56h-0.75c-5.29 0-9.29 2.76-11.98 8.28 -0.63 1.88-0.95 3.56-0.95 5.06 0 5.36 2.76 9.44 8.28 12.22 1.67 0.63 3.44 0.95 5.29 0.95 3.12 0 6.13-1.21 9.03-3.63l0.71-0.17h0.31c0.77 0 1.25 0.54 1.43 1.63v0.03c0 1.36-2.51 3-7.53 4.92 -1.72 0.32-3 0.48-3.84 0.48h-1.02c-4.43 0-8.56-2.1-12.39-6.31 -2.35-3.3-3.53-6.72-3.53-10.25 0-5.38 2.39-9.91 7.16-13.58C798.71 733.27 801.85 732.27 805.08 732.27"/><path fill="#231F20" d="M837.27 732.31c6.38 0 11.34 3.03 14.87 9.1 1.2 2.35 1.8 4.92 1.8 7.7v0.58c-0.2 1.18-0.72 1.77-1.56 1.77h-27.9c1.27 4.32 3.68 7.44 7.23 9.37 2.06 0.79 3.99 1.19 5.8 1.19 2.11 0 4.42-0.63 6.96-1.9h0.48c1 0.2 1.49 0.69 1.49 1.46v0.37c0 1.58-2.78 2.74-8.35 3.46h-0.81c-5.93 0-10.69-2.78-14.29-8.35 -1.42-2.6-2.14-5.34-2.14-8.21 0-6.04 2.86-10.86 8.59-14.46C832.21 733 834.83 732.31 837.27 732.31M824.23 748.19h26.2c0-2.49-1.09-5.22-3.26-8.18 -2.99-2.8-5.95-4.21-8.89-4.21h-1.39c-4.37 0-7.95 2.13-10.76 6.38C825.16 743.88 824.53 745.89 824.23 748.19"/><path fill="#231F20" d="M894.9 732.48c4.19 0 7.99 1.6 11.41 4.79 3.28 3.44 4.92 7.3 4.92 11.57 0 6.13-2.91 10.95-8.72 14.46 -2.51 1.27-4.93 1.9-7.26 1.9h-1.02c-3.76 0-7.93-2.07-12.52-6.21v19.25c0 0.61-0.59 1.04-1.76 1.29 -0.68 0-1.15-0.59-1.42-1.77v-27.8c0-8.3 3.91-13.89 11.74-16.77C891.2 732.9 892.75 732.66 894.9 732.48M881.84 748.47v0.65c0 4.91 2.36 8.71 7.09 11.4 1.74 0.91 3.6 1.36 5.57 1.36h0.75c5.11 0 9.02-2.64 11.71-7.91 0.63-1.67 0.95-3.29 0.95-4.85v-0.65c0-4.12-1.87-7.57-5.6-10.35 -2.24-1.54-4.76-2.31-7.57-2.31 -5.57 0-9.63 2.91-12.18 8.72C882.07 745.98 881.84 747.29 881.84 748.47"/><path fill="#231F20" d="M919.69 718.56h0.41c1.04 0.2 1.56 0.6 1.56 1.19v17.51c4.05-3.51 7.84-5.26 11.37-5.26 5.39 0 9.7 2.56 12.93 7.67 1.22 2.24 1.83 4.36 1.83 6.35v17.92c0 0.79-0.56 1.28-1.66 1.46h-0.03c-0.79 0-1.32-0.52-1.59-1.56v-17.07c0-5-2.58-8.6-7.74-10.79 -1.25-0.36-2.49-0.54-3.73-0.54 -5.14 0-8.75 2.72-10.83 8.15 -0.36 1.18-0.54 3.05-0.54 5.63v14.73c0 0.79-0.56 1.28-1.66 1.46h-0.04c-0.79 0-1.32-0.52-1.59-1.56v-43.62C918.59 719.12 919.03 718.56 919.69 718.56"/><path fill="#231F20" d="M970.92 732.55c4.23 0 8.07 1.61 11.51 4.82 3.28 3.44 4.92 7.31 4.92 11.61 0 6.16-2.92 11-8.76 14.53 -2.51 1.27-4.94 1.9-7.3 1.9h-1.02c-4.39 0-8.48-2.08-12.29-6.24 -2.33-3.28-3.5-6.68-3.5-10.18 0-5.34 2.36-9.82 7.09-13.44C964.59 733.54 967.71 732.55 970.92 732.55M957.85 748.6v0.61c0 4.96 2.38 8.78 7.13 11.47 1.74 0.91 3.6 1.36 5.57 1.36h0.75c5.11 0 9.03-2.65 11.74-7.94 0.63-1.67 0.95-3.3 0.95-4.89v-0.61c0-4.14-1.88-7.6-5.63-10.39 -2.22-1.54-4.74-2.31-7.57-2.31 -5.59 0-9.67 2.91-12.25 8.72C958.08 746.08 957.85 747.4 957.85 748.6"/><path fill="#231F20" d="M996.37 732.38c1.11 0.27 1.66 0.71 1.66 1.32v4.68c4.46-4 8.74-6.01 12.86-6.01 4.53 0 8.54 1.89 12.05 5.67 2.56 3.17 3.84 6.48 3.84 9.94v16.12c0 0.63-0.54 1.06-1.63 1.29 -1.09-0.2-1.63-0.72-1.63-1.56v-14.19c0-6.74-2.94-11.2-8.82-13.37 -1.42-0.36-2.69-0.54-3.8-0.54h-0.37c-4.93 0-8.73 2.54-11.4 7.6 -0.72 1.58-1.09 4.03-1.09 7.33v13.31c0 0.77-0.54 1.24-1.63 1.43h-0.07c-0.81 0-1.34-0.59-1.56-1.77V734.48C994.93 733.08 995.47 732.38 996.37 732.38"/><path fill="#231F20" d="M1049.73 732.31c6.38 0 11.34 3.03 14.87 9.1 1.2 2.35 1.8 4.92 1.8 7.7v0.58c-0.2 1.18-0.72 1.77-1.56 1.77h-27.9c1.27 4.32 3.68 7.44 7.23 9.37 2.06 0.79 3.99 1.19 5.8 1.19 2.1 0 4.42-0.63 6.96-1.9h0.48c1 0.2 1.49 0.69 1.49 1.46v0.37c0 1.58-2.78 2.74-8.35 3.46h-0.81c-5.93 0-10.69-2.78-14.29-8.35 -1.42-2.6-2.14-5.34-2.14-8.21 0-6.04 2.86-10.86 8.59-14.46C1044.68 733 1047.29 732.31 1049.73 732.31M1036.7 748.19h26.2c0-2.49-1.09-5.22-3.26-8.18 -2.99-2.8-5.95-4.21-8.89-4.21h-1.39c-4.37 0-7.95 2.13-10.76 6.38C1037.63 743.88 1036.99 745.89 1036.7 748.19"/><path fill="#231F20" d="M1093.93 732.1c1.13 0.3 1.7 0.74 1.7 1.32v4.72c4.53-4.03 8.8-6.04 12.83-6.04 2.17 0 4.45 0.51 6.82 1.53 0.43 0.45 0.65 0.9 0.65 1.33v0.07c-0.18 1.09-0.7 1.63-1.56 1.63 -2.33-0.75-4.13-1.12-5.4-1.12h-0.75c-5.36 0-9.29 2.77-11.78 8.32 -0.54 1.49-0.81 3.17-0.81 5.02v15.07c0 0.79-0.56 1.28-1.66 1.46h-0.07c-0.81 0-1.34-0.59-1.56-1.77v-29.39C1092.49 732.82 1093.02 732.1 1093.93 732.1"/><path fill="#231F20" d="M1134.76 732.38c6.25 0 11.19 3.07 14.83 9.2 1.11 2.44 1.66 5.01 1.66 7.71v14.7c0 0.77-0.54 1.25-1.63 1.43h-0.07c-0.7 0-1.22-0.41-1.56-1.22v0.07l0.14-3.16v-2.14c-4.53 4.3-8.83 6.45-12.9 6.45h-0.98c-5.59 0-10.25-2.82-13.98-8.45 -1.36-2.69-2.04-5.42-2.04-8.18 0-6.13 3.02-11 9.06-14.6C1129.85 732.98 1132.34 732.38 1134.76 732.38M1121.49 748.64v0.37c0 5.39 2.7 9.45 8.11 12.19 1.74 0.63 3.29 0.95 4.65 0.95h0.98c4.52 0 8.25-2.25 11.17-6.75 1.06-2.13 1.6-4.16 1.6-6.11v-0.51c0-5.2-2.56-9.18-7.67-11.91 -1.81-0.81-3.67-1.22-5.57-1.22h-0.14c-5.48 0-9.58 2.84-12.32 8.52C1121.76 745.92 1121.49 747.41 1121.49 748.64"/><path fill="#231F20" d="M1189.07 718.49h0.41c1.04 0.2 1.56 0.61 1.56 1.22v25.39l0.14 4.34c0 3.17-1.3 6.5-3.9 9.98 -3.69 3.98-7.83 5.97-12.42 5.97h-1.02c-4.48 0-8.65-2.12-12.52-6.35 -2.37-3.35-3.56-6.81-3.56-10.39 0-5.41 2.41-9.97 7.23-13.68 3.06-2.01 6.22-3.02 9.5-3.02 4.23 0 8.7 2.1 13.41 6.31v-16.43l-0.14-1.9C1188.06 718.98 1188.51 718.49 1189.07 718.49M1161.04 748.3v0.65c0 5.59 2.92 9.74 8.76 12.46 1.58 0.47 3.01 0.71 4.28 0.71h0.78c5.45 0 9.57-2.92 12.36-8.76 0.45-1.79 0.68-3.17 0.68-4.14v-0.78c0-5.57-2.98-9.73-8.93-12.49 -1.81-0.45-3.22-0.68-4.24-0.68h-0.51c-5.45 0-9.56 2.86-12.32 8.59C1161.32 745.5 1161.04 746.98 1161.04 748.3"/><path fill="#231F20" d="M1201.48 732.14c1.13 0.29 1.7 0.74 1.7 1.33v30.48c0 0.79-0.56 1.28-1.66 1.46h-0.07c-0.81 0-1.33-0.59-1.56-1.76v-29.39C1200.04 732.84 1200.58 732.14 1201.48 732.14M1201.48 723.45c1.13 0.3 1.7 0.74 1.7 1.32v0.75c0 0.7-0.63 1.14-1.9 1.33 -0.66 0-1.11-0.57-1.36-1.7C1200.12 724.02 1200.64 723.45 1201.48 723.45"/><path fill="#231F20" d="M1227.65 732.38c6.25 0 11.19 3.07 14.83 9.2 1.11 2.44 1.66 5.01 1.66 7.71v14.7c0 0.77-0.54 1.25-1.63 1.43h-0.07c-0.7 0-1.22-0.41-1.56-1.22v0.07l0.14-3.16v-2.14c-4.53 4.3-8.83 6.45-12.9 6.45h-0.98c-5.59 0-10.25-2.82-13.98-8.45 -1.36-2.69-2.04-5.42-2.04-8.18 0-6.13 3.02-11 9.06-14.6C1222.73 732.98 1225.22 732.38 1227.65 732.38M1214.37 748.64v0.37c0 5.39 2.7 9.45 8.11 12.19 1.74 0.63 3.29 0.95 4.65 0.95h0.98c4.52 0 8.25-2.25 11.17-6.75 1.06-2.13 1.6-4.16 1.6-6.11v-0.51c0-5.2-2.56-9.18-7.67-11.91 -1.81-0.81-3.67-1.22-5.57-1.22h-0.14c-5.48 0-9.58 2.84-12.32 8.52C1214.65 745.92 1214.37 747.41 1214.37 748.64"/><path fill="#231F20" d="M1255.7 719.92h0.37c1 0.2 1.49 0.59 1.49 1.15v12.05h6.04l1.12-0.14c0.66 0 1.13 0.59 1.43 1.77 0 0.68-0.46 1.19-1.39 1.53l-1.7-0.13h-5.5v19.14c0 3.6 1.27 5.84 3.8 6.72l2.99 0.24h1.43c0.63 0 1.05 0.53 1.26 1.6v-0.03c-0.18 1.06-0.69 1.6-1.53 1.6h-2.61c-3.6 0-6.28-1.98-8.04-5.94 -0.29-0.95-0.44-2.09-0.44-3.43v-19.89h-3.36l-1.87 0.14c-0.9-0.34-1.36-0.86-1.36-1.56 0.18-1.06 0.93-1.6 2.24-1.6v-0.03l0.37 0.03h3.97v-11.27C1254.55 720.57 1254.97 719.92 1255.7 719.92"/><path fill="#231F20" d="M1274.56 732.14c1.13 0.29 1.7 0.74 1.7 1.33v30.48c0 0.79-0.56 1.28-1.66 1.46h-0.07c-0.81 0-1.33-0.59-1.56-1.76v-29.39C1273.12 732.84 1273.65 732.14 1274.56 732.14M1274.56 723.45c1.13 0.3 1.7 0.74 1.7 1.32v0.75c0 0.7-0.63 1.14-1.9 1.33 -0.66 0-1.11-0.57-1.36-1.7C1273.2 724.02 1273.72 723.45 1274.56 723.45"/><path fill="#231F20" d="M1300.56 732.55c4.23 0 8.07 1.61 11.51 4.82 3.28 3.44 4.92 7.31 4.92 11.61 0 6.16-2.92 11-8.76 14.53 -2.51 1.27-4.94 1.9-7.3 1.9h-1.02c-4.39 0-8.48-2.08-12.29-6.24 -2.33-3.28-3.5-6.68-3.5-10.18 0-5.34 2.36-9.82 7.09-13.44C1294.23 733.54 1297.35 732.55 1300.56 732.55M1287.49 748.6v0.61c0 4.96 2.38 8.78 7.13 11.47 1.74 0.91 3.6 1.36 5.57 1.36h0.75c5.11 0 9.03-2.65 11.74-7.94 0.63-1.67 0.95-3.3 0.95-4.89v-0.61c0-4.14-1.88-7.6-5.63-10.39 -2.22-1.54-4.74-2.31-7.57-2.31 -5.59 0-9.67 2.91-12.25 8.72C1287.72 746.08 1287.49 747.4 1287.49 748.6"/><path fill="#231F20" d="M1326.01 732.38c1.11 0.27 1.66 0.71 1.66 1.32v4.68c4.46-4 8.74-6.01 12.86-6.01 4.53 0 8.54 1.89 12.05 5.67 2.56 3.17 3.84 6.48 3.84 9.94v16.12c0 0.63-0.54 1.06-1.63 1.29 -1.09-0.2-1.63-0.72-1.63-1.56v-14.19c0-6.74-2.94-11.2-8.82-13.37 -1.42-0.36-2.69-0.54-3.8-0.54h-0.37c-4.93 0-8.73 2.54-11.4 7.6 -0.72 1.58-1.09 4.03-1.09 7.33v13.31c0 0.77-0.54 1.24-1.63 1.43h-0.07c-0.81 0-1.34-0.59-1.56-1.77V734.48C1324.58 733.08 1325.11 732.38 1326.01 732.38"/><path fill="#231F20" d="M1386.76 505.33c-0.32 0-0.6-0.11-0.83-0.34 -0.23-0.23-0.34-0.51-0.34-0.83 0-0.32 0.11-0.6 0.34-0.83 0.23-0.23 0.51-0.34 0.83-0.34h15.23c0.32 0 0.6 0.12 0.83 0.34 0.23 0.23 0.35 0.51 0.35 0.83 0 0.32-0.11 0.6-0.34 0.83 -0.23 0.23-0.5 0.34-0.83 0.34h-6.44v19.92c0 0.32-0.11 0.6-0.34 0.83 -0.23 0.23-0.51 0.34-0.83 0.34 -0.32 0-0.6-0.11-0.83-0.34 -0.23-0.23-0.34-0.51-0.34-0.83v-19.92H1386.76z"/><path fill="#231F20" d="M1416.14 525.71l-8.29-16.58v16.13c0 0.32-0.11 0.6-0.34 0.83 -0.23 0.23-0.51 0.34-0.83 0.34 -0.32 0-0.6-0.11-0.83-0.34 -0.23-0.23-0.34-0.51-0.34-0.83v-21.09c0-0.32 0.11-0.6 0.34-0.83 0.23-0.23 0.51-0.34 0.83-0.34 0.47 0 0.82 0.21 1.04 0.62l9.51 19.03 9.51-19.03c0.23-0.41 0.57-0.62 1.04-0.62 0.32 0 0.6 0.12 0.83 0.35 0.23 0.23 0.34 0.51 0.34 0.83v21.09c0 0.32-0.11 0.6-0.34 0.83 -0.23 0.23-0.51 0.34-0.83 0.34s-0.6-0.11-0.83-0.34c-0.23-0.23-0.34-0.51-0.34-0.83v-16.13l-8.36 16.73c-0.2 0.38-0.54 0.57-1.01 0.57C1416.74 526.42 1416.37 526.19 1416.14 525.71"/></svg>