<?xml version="1.0" encoding="utf-8"?>
<!-- Generator: Adobe Illustrator 15.0.2, SVG Export Plug-In . SVG Version: 6.00 Build 0)  -->
<!DOCTYPE svg PUBLIC "-//W3C//DTD SVG 1.1//EN" "http://www.w3.org/Graphics/SVG/1.1/DTD/svg11.dtd">
<svg version="1.1" id="Layer_1" xmlns="http://www.w3.org/2000/svg" xmlns:xlink="http://www.w3.org/1999/xlink" x="0px" y="0px"
	 width="611.999px" height="497.119px" viewBox="0 0 611.999 497.119" enable-background="new 0 0 611.999 497.119"
	 xml:space="preserve">
<g>
	<path fill="#FFFFFF" d="M611.999,58.817c-22.525,9.981-46.694,16.75-72.088,19.772c25.929-15.527,45.776-40.155,55.184-69.411
		c-24.321,14.379-51.169,24.82-79.774,30.48C492.413,15.221,459.83,0,423.69,0c-69.334,0-125.551,56.217-125.551,125.513
		c0,9.828,1.109,19.427,3.251,28.606c-104.326-5.24-196.835-55.223-258.75-131.174c-10.823,18.51-16.98,40.078-16.98,63.101
		c0,43.559,22.181,81.993,55.835,104.479c-20.575-0.688-39.926-6.348-56.867-15.756v1.568c0,60.806,43.291,111.555,100.693,123.104
		c-10.517,2.83-21.607,4.397-33.08,4.397c-8.107,0-15.947-0.803-23.634-2.333c15.985,49.907,62.336,86.199,117.253,87.194
		c-42.947,33.654-97.099,53.655-155.916,53.655c-10.134,0-20.116-0.612-29.944-1.722c55.567,35.682,121.536,56.485,192.438,56.485
		c230.948,0,357.188-191.291,357.188-357.188l-0.421-16.253C573.871,106.085,595.21,83.981,611.999,58.817"/>
</g>
</svg>
